<?xml version="1.0" encoding="UTF-8" standalone="no"?>
<svg
   width="800"
   height="800"
   version="1.1"
   id="svg844"
   sodipodi:docname="logo-v2.svg"
   inkscape:version="1.1.1 (c3084ef, 2021-09-22)"
   xmlns:inkscape="http://www.inkscape.org/namespaces/inkscape"
   xmlns:sodipodi="http://sodipodi.sourceforge.net/DTD/sodipodi-0.dtd"
   xmlns="http://www.w3.org/2000/svg"
   xmlns:svg="http://www.w3.org/2000/svg">
  <defs
     id="defs848" />
  <sodipodi:namedview
     id="namedview846"
     pagecolor="#ffffff"
     bordercolor="#666666"
     borderopacity="1.0"
     inkscape:pageshadow="2"
     inkscape:pageopacity="0.0"
     inkscape:pagecheckerboard="0"
     showgrid="false"
     inkscape:zoom="0.5975"
     inkscape:cx="107.94979"
     inkscape:cy="420.08368"
     inkscape:window-width="1293"
     inkscape:window-height="679"
     inkscape:window-x="0"
     inkscape:window-y="25"
     inkscape:window-maximized="0"
     inkscape:current-layer="svg844" />
  <!-- Created with Method Draw - http://github.com/duopixel/Method-Draw/ -->
  <g
     id="g1148">
    <g
       id="g829">
      <title
         id="title824">background</title>
      <rect
         fill="none"
         id="canvas_background"
         height="802"
         width="802"
         y="-1"
         x="-1" />
      <g
         display="none"
         id="canvasGrid">
        <rect
           fill="url(#gridpattern)"
           stroke-width="0"
           y="0"
           x="0"
           height="100%"
           width="100%"
           id="svg_1" />
      </g>
    </g>
    <path
       class="st0"
       d="m 774.3184,486.71752 c 0,60.88282 -49.04449,114.15528 -109.92731,114.15528 H 116.44573 c -60.88282,0 -109.92731,-54.11806 -109.92731,-114.15528 0,-60.88282 49.04449,-111.6185 109.92731,-111.6185 6.76476,0 12.68392,-0.84559 19.44868,0.84559 3.38238,-74.41233 60.03722,-133.60396 128.53039,-133.60396 39.74295,0 74.41233,18.60308 98.08898,49.04449 21.13987,-65.11079 78.64031,-111.6185 146.28788,-111.6185 85.40506,0 154.74383,75.25793 154.74383,168.27334 0,8.45595 -0.84559,17.75749 -1.69119,25.36784 0.84559,0 0.84559,2.53678 1.69119,2.53678 60.88282,-1.69119 110.7729,49.89009 110.7729,110.7729 z"
       id="svg_3"
       fill="#884d58" />
    <path
       stroke-width="1.5"
       class="st0"
       d="m 794.3184,507.82863 c 0,60.88282 -49.04449,114.15528 -109.92731,114.15528 H 136.44573 c -60.88282,0 -109.92731,-54.11806 -109.92731,-114.15528 0,-60.88282 49.04449,-111.6185 109.92731,-111.6185 6.76476,0 12.68392,-0.84559 19.44868,0.84559 3.38238,-74.41233 60.03722,-133.60396 128.53039,-133.60396 39.74295,0 74.41233,18.60308 98.08898,49.04449 21.13987,-65.11079 78.64031,-111.6185 146.28788,-111.6185 85.40506,0 154.74383,75.25793 154.74383,168.27334 0,8.45595 -0.84559,17.75749 -1.69119,25.36784 0.84559,0 0.84559,2.53678 1.69119,2.53678 60.88282,-1.69119 110.7729,49.89009 110.7729,110.7729 z"
       id="svg_4"
       fill="#575182" />
    <path
       stroke="null"
       class="st0"
       d="m 774.3184,487.82863 c 0,60.88282 -49.04449,114.15528 -109.92731,114.15528 H 116.44573 c -60.88282,0 -109.92731,-54.11806 -109.92731,-114.15528 0,-60.88282 49.04449,-111.6185 109.92731,-111.6185 6.76476,0 12.68392,-0.84559 19.44868,0.84559 3.38238,-74.41233 60.03722,-133.60396 128.53039,-133.60396 39.74295,0 74.41233,18.60308 98.08898,49.04449 21.13987,-65.11079 78.64031,-111.6185 146.28788,-111.6185 85.40506,0 154.74383,75.25793 154.74383,168.27334 0,8.45595 -0.84559,17.75749 -1.69119,25.36784 0.84559,0 0.84559,2.53678 1.69119,2.53678 60.88282,-1.69119 110.7729,49.89009 110.7729,110.7729 z"
       id="svg_5"
       fill="#776fb1" />
    <g
       id="svg_21">
      <path
         fill="#ffffff"
         stroke-width="1.5"
         d="m 296.76016,443.05178 22.72727,-45.45454 h 60.60606 l 22.72727,45.45454 -22.72727,45.45454 h -60.60606 z"
         id="svg_19" />
      <path
         fill="#ffffff"
         stroke-width="1.5"
         d="m 395.88797,495.66874 22.72728,-45.45454 h 60.60606 l 22.72727,45.45454 -22.72727,45.45454 h -60.60606 z"
         id="svg_20" />
      <path
         fill="#ffffff"
         stroke-width="1.5"
         d="m 395.0073,388.78104 22.72728,-45.45454 h 60.60606 l 22.72727,45.45454 -22.72727,45.45454 h -60.60606 z"
         id="svg_18" />
    </g>
    <text
       fill="#ffffff"
       stroke-width="1.5"
       x="142.54893"
       y="506.88391"
       id="svg_23"
       font-size="240px"
       font-family="'Courier New', Courier, monospace"
       text-anchor="start"
       xml:space="preserve"
       font-weight="bold">{</text>
    <text
       fill="#ffffff"
       stroke-width="1.5"
       x="511.39194"
       y="506.16449"
       id="svg_22"
       font-size="240px"
       font-family="'Courier New', Courier, monospace"
       text-anchor="start"
       xml:space="preserve"
       font-weight="bold">}</text>
  </g>
</svg>
